<?xml version="1.0" encoding="utf-8"?>
<!-- Generator: Adobe Illustrator 15.1.0, SVG Export Plug-In  -->
<!DOCTYPE svg PUBLIC "-//W3C//DTD SVG 1.1//EN" "http://www.w3.org/Graphics/SVG/1.1/DTD/svg11.dtd" [
	<!ENTITY ns_flows "http://ns.adobe.com/Flows/1.0/">
]>
<svg version="1.1"
	 xmlns="http://www.w3.org/2000/svg" xmlns:xlink="http://www.w3.org/1999/xlink" xmlns:a="http://ns.adobe.com/AdobeSVGViewerExtensions/3.0/"
	 x="0px" y="0px" width="300px" height="85px" viewBox="0 3.6 300 85" overflow="visible" enable-background="new 0 3.6 300 85"
	 xml:space="preserve">
<defs>
</defs>
<path fill="#FFFFFF" d="M192.2,57.2l-0.1-0.5c-0.2-1.4-0.4-2.8-0.4-4.2V37.8c0-4.6-1.4-8.2-4.1-10.7c-2.6-2.3-6.2-3.5-10.8-3.5
	c-3.5,0-6.7,0.9-9.3,2.6c0.4-0.7,0.6-1.5,0.6-2.4v-5.6c0-2.8-2.2-5-5-5h-4.1c-0.4,0-0.8,0.1-1.2,0.2c-0.4-0.1-0.8-0.2-1.2-0.2h-4.1
	c-2.8,0-5,2.2-5,5v5.7c-1.1-0.2-2.2-0.3-3.4-0.3c-4.9,0-9.1,2.1-12.2,6.1c-3-4-7.3-6.1-12.7-6.1c-3.6,0-6.7,1-9.4,2.9v-8.3
	c0-2.8-2.2-5-5-5h-7c-2.2,0-4.1,1.4-4.8,3.4l-5.8,17.7l-5.8-17.7c-0.7-2.1-2.6-3.5-4.8-3.5h-7c-0.6,0-1.3,0.1-1.8,0.4
	C60.8,5.1,50.2,0,38.7,0c-4.5,0-9,0.8-13.3,2.4C15.7,5.9,8,13,3.6,22.4c-4.4,9.4-4.8,19.9-1.2,29.6c6.5,17.9,23.7,29.9,42.7,29.9
	c5.3,0,10.6-0.9,15.6-2.8c6.4-2.3,12-6,16.7-10.8c1-1,1.5-2.4,1.4-3.8c-0.1-1.1-0.5-2.1-1.2-3c0.9-0.9,1.5-2.2,1.5-3.6v-2.6l1.4,4.2
	c0.7,2.1,2.6,3.5,4.8,3.5h4c2.2,0,4.1-1.4,4.8-3.5l1.4-4.2v2.6c0,2.8,2.2,5,5,5h4.4c1.9,0,3.5-1.1,4.4-2.7c2.8,2.1,6.4,3.2,10.4,3.2
	c3.7,0,6.8-0.8,9.3-2.4c1.1-0.7,2.2-1.7,3.3-2.8c3,3.4,7.1,5.2,12.1,5.2c2.4,0,4.7-0.4,6.7-1.2c0.7,0.4,1.6,0.7,2.5,0.7h3.1
	c0.4,0,0.8-0.1,1.2-0.2c0.4,0.1,0.8,0.2,1.2,0.2h4.1c1.2,0,2.2-0.4,3.1-1.1c2,1.1,4.2,1.6,6.7,1.6c2.7,0,5.2-0.5,7.5-1.4
	c0.8,0.5,1.7,0.8,2.8,0.8h4c1.5,0,2.9-0.7,3.8-1.8C192,60.2,192.4,58.7,192.2,57.2z M54.1,38c0,1-0.1,1.9-0.3,2.9l-2.9-2.7
	c-0.9-0.8-2.1-1.3-3.4-1.3c-0.1,0-0.2,0-0.3,0c-1.3,0.1-2.6,0.7-3.5,1.7l-3.2,3.6c-0.9,1-1.4,2.3-1.3,3.7c0.1,1.3,0.7,2.6,1.7,3.5
	l1.4,1.2c0,0-0.1,0-0.1,0c-6.8,0-11.9-5.4-11.9-12.7v-0.1c0-7.3,4.9-12.5,11.7-12.5c6.8,0,11.9,5.4,11.9,12.7V38z M121.4,49.9
	c0,0-0.3,0.2-1.4,0.2c-1.3,0-1.8-0.3-2.3-1h4.5C121.7,49.7,121.4,49.9,121.4,49.9z M147.5,48.5c-1,1.1-2,1.6-3,1.6
	c-0.9,0-1.2-0.2-1.7-0.9c-0.7-1.1-1.1-3-1.1-5.3c0-2.7,0.5-4.8,1.3-6.1c0.4-0.6,0.7-0.9,2-0.9c0,0,0.5,0,1.7,0.8
	c0.4,0.2,0.6,0.5,0.8,0.7V48.5z M174.7,50c0.5-0.2,1.1-0.6,2.2-0.9C176.1,49.5,175.4,49.8,174.7,50z"/>
<path fill="#CCCCCC" d="M63.3,59.1l1.6-1.7l-5.7-4.7c3.3-3.9,5.1-9,5.1-14.4v-0.1c0-11.8-8.7-22-21.8-22S20.7,26.5,20.7,38.3v0.1
	c0,11.8,8.7,22,21.8,22c5.3,0,9.9-1.7,13.5-4.6l5.4,5c-2.4,1.9-5.2,3.5-8.3,4.7C37.9,71,21,63.2,15.4,47.9l-0.1-0.3
	C9.8,32.4,17.6,15.5,32.8,10c14.8-5.4,31,1.8,37.1,16.1C63,9.5,44.3,1.2,27.3,7.4C9.8,13.8,0.9,33.1,7.3,50.6
	c7.7,21,30.9,31.8,52,24.2c5.8-2.1,10.8-5.4,14.9-9.6l-9.2-7.7C64.4,58,63.8,58.6,63.3,59.1z M55.6,49.4l-7.9-7.2l-3.2,3.6l7.9,6.8
	c-2.6,2-6.1,3.3-9.8,3.3c-9.8,0-16.9-8-16.9-17.7v-0.1c0-9.7,7-17.5,16.7-17.5s16.9,7.9,16.9,17.7v0.1
	C59.3,42.6,57.9,46.4,55.6,49.4z"/>
<polygon fill="#CCCCCC" points="87.5,50.8 77,18.5 70,18.5 70,58.4 74.4,58.4 74.4,24.2 85.6,58.4 89.6,58.4 100.7,24.2 100.7,58.4 
	105.1,58.4 105.1,18.5 98.1,18.5 "/>
<path fill="#CCCCCC" d="M128.1,50c-1.4,2.2-2.6,3.7-3.7,4.4c-1.1,0.7-2.5,1.1-4.2,1.1c-2.9,0-5.1-1.1-6.6-3.4c-1.3-1.9-2-4.5-2-7.7
	h19.6V44c0-4.6-1-8.2-2.8-10.8c-2-2.8-5-4.3-8.8-4.3c-3.7,0-6.6,1.4-8.8,4.2c-2.1,2.7-3.2,6.4-3.2,10.9c0,4.9,1.1,8.7,3.3,11.3
	c2.1,2.5,5.2,3.7,9.1,3.7c2.7,0,4.9-0.5,6.6-1.6c1.7-1.1,3.3-2.9,4.9-5.5l0.2-0.4l-3.4-1.8L128.1,50z M119.3,32.3l0.1,0
	c4.4,0,6.9,2.9,7.6,8.7h-15.4c0.1-2,0.7-3.9,1.9-5.5C115,33.4,116.9,32.3,119.3,32.3z"/>
<path fill="#CCCCCC" d="M152.7,32.5c-1.2-1.2-2.3-2-3.4-2.5c-1.4-0.7-3.1-1.1-5-1.1c-3.4,0-6.2,1.4-8.3,4.2
	c-2.1,2.8-3.2,6.4-3.2,10.6c0,4.9,1,8.7,3,11.3c2,2.6,5,4,8.7,4c3.8,0,6.7-1.2,8.8-3.6l0.4,3.1h3.1V18.5h-4.1V32.5z M144.7,55.5
	c-2.6,0-4.5-1-5.9-3.2c-1.3-2-1.9-4.7-1.9-8c0-3.7,0.7-6.7,2.1-8.8c1.4-2.1,3.4-3.2,6.1-3.2c1.4,0,2.9,0.6,4.5,1.7c1.4,1,2.4,2,3,3
	v13.6C150.4,53.9,147.7,55.5,144.7,55.5z"/>
<rect x="159.3" y="18.5" fill="#CCCCCC" width="4.1" height="5.6"/>
<rect x="159.3" y="29.4" fill="#CCCCCC" width="4.1" height="29"/>
<path fill="#CCCCCC" d="M187.4,57.9c-0.3-1.7-0.4-3.4-0.4-5.1V38.1c0-3.2-0.8-5.5-2.4-7c-1.6-1.5-4.1-2.2-7.4-2.2
	c-4.8,0-8.5,2.2-10.8,6.6l-0.2,0.4l2.9,1.7l0.2-0.3c2.1-3.3,4.7-4.9,7.8-4.9c2.2,0,3.8,0.4,4.7,1.2c0.9,0.8,1.3,2.1,1.3,4v1.6
	c-6.8,1.5-11.1,2.8-13.2,3.9c-3.2,1.7-4.8,4.5-4.8,8.1c0,2.4,0.8,4.3,2.3,5.7c1.5,1.4,3.5,2.1,5.8,2.1c2.1,0,4-0.3,5.6-1
	c1.2-0.5,2.7-1.4,4.3-2.6l0.4,3.1h4L187.4,57.9z M182.8,42.6v8.5c-2.9,2.9-6,4.4-9.1,4.4c-1.4,0-2.5-0.4-3.4-1.2
	c-0.8-0.8-1.2-1.8-1.2-3.2c0-1.9,0.8-3.4,2.3-4.5C173.4,45.2,177.2,43.8,182.8,42.6z"/>
</svg>
