<?xml version="1.0" encoding="utf-8"?>
<!-- Generator: Adobe Illustrator 15.1.0, SVG Export Plug-In  -->
<!DOCTYPE svg PUBLIC "-//W3C//DTD SVG 1.1//EN" "http://www.w3.org/Graphics/SVG/1.1/DTD/svg11.dtd" [
	<!ENTITY ns_flows "http://ns.adobe.com/Flows/1.0/">
]>
<svg version="1.1"
	 xmlns="http://www.w3.org/2000/svg" xmlns:xlink="http://www.w3.org/1999/xlink" xmlns:a="http://ns.adobe.com/AdobeSVGViewerExtensions/3.0/"
	 x="0px" y="0px" width="300px" height="100px" viewBox="-17.7 -20.8 300 100"
	 overflow="visible" enable-background="new -17.7 -20.8 300 100" xml:space="preserve">
<defs>
</defs>
<path fill="#CCCCCC" d="M74.7,29.9c2,0.3,3.6,1.4,4.8,3.3c1.3-1.9,2.1-4.6,2.1-8.1c0-7-3-10.9-7.5-10.9c-4.6,0-7.5,3.9-7.5,10.9
	c0,7,3,10.9,7.5,10.9c1.5,0,2.8-0.4,3.9-1.2c-1.1-1.8-1.9-2.4-3.3-2.6V29.9 M84.7,39.6c-2.2,0-4.5-0.8-5.8-3.1
	c-1.4,0.9-3,1.4-4.9,1.4c-6.2,0-9.8-5.4-9.8-12.8c0-7.3,3.6-12.8,9.8-12.8c6.2,0,9.8,5.4,9.8,12.8c0,4.2-1.2,7.8-3.4,10
	c1.1,1.9,2.1,2.4,4.3,2.4V39.6z"/>
<path fill="#CCCCCC" d="M99,19.7v17.9H97v-2.8c-1.9,2-3.5,3.2-6.1,3.2c-3.7,0-5.3-2.1-5.3-6V19.7h2.1v12c0,3,0.9,4.6,3.6,4.6
	c2.2,0,3.4-1.3,5.7-3.4V19.7H99"/>
<path fill="#CCCCCC" d="M113.1,27c-0.4-3.7-2-6-5.1-6.1c-3.6,0-5.2,3.7-5.2,6.1H113.1 M102.7,28.7c0,4.1,1.7,7.6,5.7,7.6
	c2.3,0,3.4-0.8,5.2-3.6l1.7,0.9c-1.9,3.2-3.7,4.4-7.1,4.4c-4.7,0-7.6-3-7.6-9.3c0-5.5,2.8-9.3,7.3-9.3c4.8,0,7.1,3.8,7.1,9.4H102.7z
	"/>
<path fill="#CCCCCC" d="M129.3,27c-0.4-3.7-2-6-5.2-6.1c-3.7,0-5.2,3.7-5.2,6.1H129.3 M118.9,28.7c0,4.1,1.7,7.6,5.7,7.6
	c2.3,0,3.4-0.8,5.2-3.6l1.7,0.9c-1.9,3.2-3.7,4.4-7.1,4.4c-4.7,0-7.6-3-7.6-9.3c0-5.5,2.8-9.3,7.4-9.3c4.8,0,7.2,3.8,7.2,9.4H118.9z
	"/>
<path fill="#CCCCCC" d="M133.2,37.6V19.7h2.1v2.8c1.9-2,3.5-3.2,6.1-3.2c3.7,0,5.3,2.1,5.3,6v12.2h-2.1v-12c0-3-0.9-4.6-3.6-4.6
	c-2.2,0-3.4,1.3-5.7,3.4v13.2H133.2"/>
<polyline fill="#CCCCCC" points="157.3,37.6 157.3,12.7 161.3,12.7 168.2,33.8 168.2,33.8 175.1,12.7 179.1,12.7 179.1,37.6 
	176.8,37.6 176.8,14.6 176.8,14.6 169.3,37.6 167.1,37.6 159.7,14.6 159.6,14.6 159.6,37.6 157.3,37.6 "/>
<path fill="#CCCCCC" d="M192,27.5c-8.2,1.8-9.3,3.5-9.3,5.7c0,2,1.3,3.1,3.2,3.1c1.9,0,4.3-1.1,6.1-3V27.5 M192.4,37.6l-0.3-2.2
	c-2.1,1.7-3.8,2.5-6.5,2.5c-2.8,0-4.9-1.7-4.9-4.7c0-4.9,4-5.8,11.5-7.4v-1.2c0-2.4-1-3.6-4.1-3.6c-2.1,0-3.9,1.2-5.2,3.2l-1.4-0.8
	c1.5-2.9,3.7-4.1,6.6-4.1c4.1,0,6,1.7,6,5.6v9.4c0,0.9,0.1,2.1,0.3,3.3H192.4z"/>
<path fill="#CCCCCC" d="M196.2,37.6V19.7h2.1v3.4h0.1c1-2.2,2.9-3.7,5.2-3.7h0.9v2h-0.9c-2.3,0-5.2,2.7-5.2,6.1v10.1H196.2"/>
<path fill="#CCCCCC" d="M212.8,34.2L212.8,34.2l5.1-14.5h2.2l-6.7,19.2c-1.2,3.5-2.5,5.1-5.7,5.1c-0.9,0-1.4-0.1-1.9-0.2V42
	c0.6,0.1,1.3,0.2,2.1,0.2c1.4,0,3-1.3,4-5l-6.2-17.6h2.3L212.8,34.2"/>
<path fill="#CCCCCC" d="M67.1,45.1v7.4c0,1,0.4,1.5,1.4,1.5c1,0,1.4-0.5,1.4-1.5v-7.4h2v7.4c0,2.3-1.4,3.3-3.5,3.3
	c-2.1,0-3.5-1-3.5-3.3v-7.4H67.1"/>
<path fill="#CCCCCC" d="M73.2,55.7v-8h1.8v0.9c0.7-0.6,1.3-1.1,2.1-1.1c1.1,0,1.7,0.6,1.7,2.1v6.1h-1.9v-5.9c0-0.5-0.2-0.9-0.7-0.9
	c-0.4,0-0.8,0.4-1.2,0.7v6H73.2"/>
<path fill="#CCCCCC" d="M79.9,47.7h1.9v8h-1.9V47.7z M79.9,44.6h1.9v1.7h-1.9V44.6z"/>
<polyline fill="#CCCCCC" points="85.6,52.8 85.7,52.8 86.9,47.7 88.7,47.7 86.5,55.7 84.7,55.7 82.6,47.7 84.4,47.7 85.6,52.8 "/>
<path fill="#CCCCCC" d="M92.9,50.6v-0.4c0-0.7-0.3-1.1-1.1-1.1c-0.7,0-1.1,0.4-1.1,1.1v0.4H92.9 M90.7,52.1v1.1
	c0,0.8,0.5,1.1,1.1,1.1c0.8,0,1.1-0.5,1.1-1.1h1.8c-0.1,1.6-1.1,2.6-2.9,2.6c-1.8,0-2.9-1.1-2.9-2.8v-2.6c0-1.7,1.2-2.8,2.9-2.8
	c1.7,0,2.9,1.1,2.9,2.7v1.9H90.7z"/>
<path fill="#CCCCCC" d="M95.8,55.7v-8h1.8v1.1h0c0.4-0.8,1-1.2,1.9-1.2v2c-0.3-0.1-0.7-0.2-1-0.2c-0.6,0-0.9,0.5-0.9,0.9v5.5H95.8"
	/>
<path fill="#CCCCCC" d="M104,50.1c-0.3-0.7-0.7-1.1-1.3-1.1c-0.4,0-0.7,0.3-0.7,0.7c0,1.2,3.6,1.3,3.6,3.6c0,1.6-1.1,2.4-2.7,2.4
	c-1.1,0-2.1-0.3-3-2.3l1.7-0.5c0.2,0.7,0.6,1.2,1.3,1.2c0.6,0,0.9-0.3,0.9-0.7c0-1.5-3.6-1.2-3.6-3.8c0-1.5,1.2-2.2,2.5-2.2
	c1.4,0,2.3,0.8,2.8,2L104,50.1"/>
<path fill="#CCCCCC" d="M106.4,47.7h1.8v8h-1.8V47.7z M106.4,44.6h1.8v1.7h-1.8V44.6z"/>
<path fill="#CCCCCC" d="M109.1,49.5V48h0.7v-2.2h1.8V48h1.2v1.5h-1.2v4.1c0,0.4,0.3,0.6,0.8,0.6c0.1,0,0.3,0,0.4,0v1.6
	c-0.4,0.1-0.7,0.1-1.1,0.1c-1.2,0-2-0.4-2-1.6v-4.7H109.1"/>
<path fill="#CCCCCC" d="M113.9,56.9c0.2,0,0.4,0,0.5,0c0.8,0,1.3-0.7,1.3-1.1c0-0.5-0.1-1-0.3-1.7l-1.8-6.4h1.9l1.2,5.3h0l1.2-5.3
	h1.9l-2.1,8c-0.6,2.2-1.3,2.8-3.2,2.8c-0.2,0-0.4,0-0.6,0V56.9"/>
<path fill="#CCCCCC" d="M125.3,53.3c0,0.6,0.4,0.9,1.1,0.9s1.1-0.3,1.1-0.9v-3.2c0-0.6-0.4-0.9-1.1-0.9s-1.1,0.3-1.1,0.9V53.3
	 M123.4,50.6c0-2.1,1.1-3,2.9-3s2.9,0.9,2.9,3v2.2c0,2.1-1.1,3-2.9,3s-2.9-0.9-2.9-3V50.6z"/>
<path fill="#CCCCCC" d="M133.7,46.5h-0.5c-0.4,0-0.6,0.3-0.6,0.7V48h1.1v1.5h-1.1v6.1h-1.8v-6.1h-0.8V48h0.8v-0.8
	c0-1.8,0.8-2.3,2.1-2.3c0.3,0,0.6,0,0.9,0.1V46.5"/>
<polyline fill="#CCCCCC" points="138.1,55.7 138.1,45.1 140.1,45.1 140.1,53.9 143.4,53.9 143.4,55.7 138.1,55.7 "/>
<path fill="#CCCCCC" d="M145.9,53.3c0,0.6,0.4,0.9,1.1,0.9c0.6,0,1.1-0.3,1.1-0.9v-3.2c0-0.6-0.4-0.9-1.1-0.9
	c-0.6,0-1.1,0.3-1.1,0.9V53.3 M144.1,50.6c0-2.1,1.1-3,2.9-3c1.9,0,2.9,0.9,2.9,3v2.2c0,2.1-1.1,3-2.9,3c-1.8,0-2.9-0.9-2.9-3V50.6z
	"/>
<path fill="#CCCCCC" d="M151.1,55.7v-8h1.8v0.9c0.7-0.6,1.3-1.1,2.1-1.1c1.1,0,1.7,0.6,1.7,2.1v6.1h-1.9v-5.9c0-0.5-0.2-0.9-0.7-0.9
	c-0.4,0-0.8,0.4-1.2,0.7v6H151.1"/>
<path fill="#CCCCCC" d="M161.6,49.5c-0.4-0.4-0.7-0.6-1.1-0.6c-0.5,0-0.9,0.3-0.9,1.9v1.7c0,1.6,0.4,1.9,0.9,1.9
	c0.4,0,0.8-0.2,1.1-0.6V49.5 M161.7,55.7v-1h0c-0.3,0.5-1.1,1.1-2,1.1c-1.4,0-2-1.1-2-3.2v-1.9c0-2.1,0.6-3.2,2-3.2
	c0.5,0,1,0.2,1.8,0.9v-3.3h1.8v10.6H161.7z"/>
<path fill="#CCCCCC" d="M166.2,53.3c0,0.6,0.4,0.9,1.1,0.9s1.1-0.3,1.1-0.9v-3.2c0-0.6-0.4-0.9-1.1-0.9s-1.1,0.3-1.1,0.9V53.3
	 M164.3,50.6c0-2.1,1.1-3,2.9-3c1.8,0,2.9,0.9,2.9,3v2.2c0,2.1-1.1,3-2.9,3c-1.9,0-2.9-0.9-2.9-3V50.6z"/>
<path fill="#CCCCCC" d="M171.4,55.7v-8h1.8v0.9c0.7-0.6,1.3-1.1,2.1-1.1c1.1,0,1.7,0.6,1.7,2.1v6.1h-1.9v-5.9c0-0.5-0.2-0.9-0.7-0.9
	c-0.4,0-0.8,0.4-1.2,0.7v6H171.4"/>
<path fill="#CCCCCC" d="M8,29.3c3.4-0.7,5.2,2,5.2,2C11.1,19.5,5,27.9,5,27.9c4.2-7.8-5-14.3-5-14.3l4.7,18.6
	C4.7,32.2,5,29.9,8,29.3z"/>
<path fill="#CCCCCC" d="M47.3,27.9c0,0-6.1-8.4-8.2,3.4c0,0,1.8-2.7,5.2-2c3,0.6,3.3,2.9,3.3,2.9l4.7-18.6
	C52.2,13.7,43.1,20.1,47.3,27.9z"/>
<path fill="#CCCCCC" d="M14.5,38.4c1.3-0.5,2.6-0.9,4.2-1.5c-0.6-0.4-1.5-1.1-2.1-1.6c-1.6,0.6-3.1,1.2-4,1.5c-0.9,0.3-4,1-5.2-2
	c-0.8-2.2,0.8-3.6,2.3-3.6c0.6,0,1.1,0.2,1.1,0.3c-0.8,0-1.4,0.6-1.4,1.4c0,0.8,0.6,1.4,1.4,1.4c0.8,0,1.4-0.6,1.4-1.4
	c0-0.6-0.3-1.1-0.8-1.4c-0.6-0.4-1.5-0.7-2.3-0.7c-1.9,0-3.5,1.6-3.7,3.5C5.2,36.4,7.5,40.8,14.5,38.4z"/>
<path fill="#CCCCCC" d="M43.1,30.9c-0.8,0-1.7,0.3-2.3,0.7c-0.5,0.4-0.8,0.8-0.8,1.4c0,0.8,0.6,1.4,1.4,1.4c0.8,0,1.4-0.6,1.4-1.4
	c0-0.8-0.6-1.4-1.4-1.4c0-0.1,0.6-0.3,1.1-0.3c1.5,0,3.1,1.4,2.3,3.6c-1.1,3-4.2,2.3-5.2,2c-0.7-0.3-3.5-1.3-5.4-2
	c2.8-2.3,4.7-5.8,4.7-9.7c0-6.9-5.6-12.5-12.6-12.5c-7,0-12.6,5.6-12.6,12.5c0,6.9,5.6,12.5,12.6,12.5c2,0,3.9-0.5,5.6-1.3
	c1.9,0.7,4.8,1.8,5.9,2.1c7,2.5,9.3-2,9-4.1C46.5,32.5,44.9,30.9,43.1,30.9z M17,25.2c0-6.4,4.2-11.5,9.3-11.5
	c5.2,0,9.4,5.2,9.4,11.5c0,3.7-1.4,7-3.6,9.1c-3.3-1.2-3.9-1.4-5.6-1.8c-3.9-0.8-5.4,0.6-6,1.7C18.4,32,17,28.8,17,25.2z M20.9,34.5
	c0.6-0.4,1.7-0.8,3.7-0.6c1.5,0.2,2.4,0.5,5.6,1.9c-1.2,0.6-2.4,1-3.8,1C24.3,36.7,22.4,35.9,20.9,34.5z"/>
<path fill="#CCCCCC" d="M43.2,40.2H9.6C8,40.2,7,41,7.2,41.9c0.3,1,1.8,1.7,3.4,1.6l12.9-1c1.6-0.1,4.2-0.1,5.8,0l13,1
	c1.6,0.1,3.1-0.6,3.4-1.6C45.9,41,44.8,40.2,43.2,40.2z"/>
<path fill="#CCCCCC" d="M22.1,10.5c0-1.3,0.5-2.1,2-2.1c0.9,0,1.7,1.1,0.3,3.2c1.6-0.4,2.4-0.3,3.9,0c-1.3-2-0.6-3.2,0.4-3.2
	c1.5,0,2,0.8,2,2.1c0.8-0.5,1.5-1.6,1.5-2.8c0-1.1-0.9-2.2-2-2.2c-1.4,0-2.1,0.4-2.7,1.1c0.1-0.2,0.2-0.4,0.3-0.7
	c0.2-0.5,0.5-1,0.5-1.5c0-0.6-0.3-1.3-0.7-2c-0.4-0.7-0.9-1.7-1.3-2.6c-0.4,0.9-0.9,1.9-1.3,2.6c-0.4,0.7-0.7,1.4-0.7,2
	c0,0.5,0.3,1.1,0.5,1.5c0.1,0.2,0.2,0.4,0.3,0.7C24.7,6,24,5.6,22.6,5.6c-1.1,0-2,1-2,2.2C20.6,8.9,21.4,10.1,22.1,10.5z M26.4,9.3
	c0,0.1,0,0.1,0,0.2C26.4,9.5,26.4,9.4,26.4,9.3L26.4,9.3z"/>
</svg>
